<?xml version="1.0" encoding="UTF-8"?>
<svg xmlns="http://www.w3.org/2000/svg" xmlns:xlink="http://www.w3.org/1999/xlink" width="2678.84" height="3304.55" viewBox="0 0 2678.84 3304.55">
<defs>
<clipPath id="clip-0">
<path clip-rule="nonzero" d="M 0 0 L 2678.839844 0 L 2678.839844 3304.550781 L 0 3304.550781 Z M 0 0 "/>
</clipPath>
<clipPath id="clip-1">
<path clip-rule="nonzero" d="M 697 2120 L 1982 2120 L 1982 3217 L 697 3217 Z M 697 2120 "/>
</clipPath>
<clipPath id="clip-2">
<path clip-rule="evenodd" d="M 1021.511719 2120.058594 L 697.605469 2120.058594 L 1069.980469 3216.558594 L 1608.871094 3216.558594 L 1981.261719 2120.058594 L 1657.410156 2120.058594 L 1374.609375 2496.390625 C 1366.261719 2507.449219 1353.261719 2513.960938 1339.441406 2513.960938 C 1325.609375 2513.960938 1312.570312 2507.46875 1304.28125 2496.390625 L 1021.511719 2120.058594 "/>
</clipPath>
<linearGradient id="linear-pattern-0" gradientUnits="userSpaceOnUse" x1="0.179611" y1="0" x2="0.820389" y2="0" gradientTransform="matrix(0.00002041, 1711.2, -1711.2, 0.00002041, 1339.43, 1812.71)">
<stop offset="0" stop-color="rgb(9.97467%, 44.367981%, 65.44342%)" stop-opacity="1"/>
<stop offset="0.0078125" stop-color="rgb(9.9823%, 44.467163%, 65.534973%)" stop-opacity="1"/>
<stop offset="0.015625" stop-color="rgb(9.997559%, 44.665527%, 65.719604%)" stop-opacity="1"/>
<stop offset="0.0234375" stop-color="rgb(10.012817%, 44.863892%, 65.904236%)" stop-opacity="1"/>
<stop offset="0.03125" stop-color="rgb(10.029602%, 45.062256%, 66.088867%)" stop-opacity="1"/>
<stop offset="0.0390625" stop-color="rgb(10.044861%, 45.26062%, 66.273499%)" stop-opacity="1"/>
<stop offset="0.046875" stop-color="rgb(10.06012%, 45.458984%, 66.45813%)" stop-opacity="1"/>
<stop offset="0.0546875" stop-color="rgb(10.076904%, 45.657349%, 66.642761%)" stop-opacity="1"/>
<stop offset="0.0625" stop-color="rgb(10.092163%, 45.855713%, 66.827393%)" stop-opacity="1"/>
<stop offset="0.0703125" stop-color="rgb(10.107422%, 46.054077%, 67.012024%)" stop-opacity="1"/>
<stop offset="0.078125" stop-color="rgb(10.124207%, 46.252441%, 67.196655%)" stop-opacity="1"/>
<stop offset="0.0859375" stop-color="rgb(10.139465%, 46.44928%, 67.381287%)" stop-opacity="1"/>
<stop offset="0.09375" stop-color="rgb(10.154724%, 46.647644%, 67.565918%)" stop-opacity="1"/>
<stop offset="0.101562" stop-color="rgb(10.169983%, 46.846008%, 67.749023%)" stop-opacity="1"/>
<stop offset="0.109375" stop-color="rgb(10.186768%, 47.044373%, 67.933655%)" stop-opacity="1"/>
<stop offset="0.117188" stop-color="rgb(10.202026%, 47.242737%, 68.118286%)" stop-opacity="1"/>
<stop offset="0.125" stop-color="rgb(10.217285%, 47.441101%, 68.302917%)" stop-opacity="1"/>
<stop offset="0.132813" stop-color="rgb(10.23407%, 47.639465%, 68.487549%)" stop-opacity="1"/>
<stop offset="0.140625" stop-color="rgb(10.249329%, 47.83783%, 68.67218%)" stop-opacity="1"/>
<stop offset="0.148438" stop-color="rgb(10.264587%, 48.036194%, 68.856812%)" stop-opacity="1"/>
<stop offset="0.15625" stop-color="rgb(10.279846%, 48.234558%, 69.041443%)" stop-opacity="1"/>
<stop offset="0.164062" stop-color="rgb(10.296631%, 48.432922%, 69.226074%)" stop-opacity="1"/>
<stop offset="0.171875" stop-color="rgb(10.31189%, 48.631287%, 69.410706%)" stop-opacity="1"/>
<stop offset="0.179687" stop-color="rgb(10.327148%, 48.829651%, 69.595337%)" stop-opacity="1"/>
<stop offset="0.1875" stop-color="rgb(10.343933%, 49.028015%, 69.779968%)" stop-opacity="1"/>
<stop offset="0.195312" stop-color="rgb(10.359192%, 49.226379%, 69.9646%)" stop-opacity="1"/>
<stop offset="0.203125" stop-color="rgb(10.374451%, 49.424744%, 70.149231%)" stop-opacity="1"/>
<stop offset="0.210938" stop-color="rgb(10.389709%, 49.623108%, 70.333862%)" stop-opacity="1"/>
<stop offset="0.21875" stop-color="rgb(10.406494%, 49.821472%, 70.518494%)" stop-opacity="1"/>
<stop offset="0.226563" stop-color="rgb(10.421753%, 50.018311%, 70.701599%)" stop-opacity="1"/>
<stop offset="0.234375" stop-color="rgb(10.437012%, 50.216675%, 70.88623%)" stop-opacity="1"/>
<stop offset="0.242188" stop-color="rgb(10.453796%, 50.415039%, 71.070862%)" stop-opacity="1"/>
<stop offset="0.25" stop-color="rgb(10.469055%, 50.613403%, 71.255493%)" stop-opacity="1"/>
<stop offset="0.257812" stop-color="rgb(10.484314%, 50.811768%, 71.440125%)" stop-opacity="1"/>
<stop offset="0.265625" stop-color="rgb(10.501099%, 51.010132%, 71.624756%)" stop-opacity="1"/>
<stop offset="0.273437" stop-color="rgb(10.516357%, 51.208496%, 71.809387%)" stop-opacity="1"/>
<stop offset="0.28125" stop-color="rgb(10.531616%, 51.40686%, 71.994019%)" stop-opacity="1"/>
<stop offset="0.289062" stop-color="rgb(10.546875%, 51.605225%, 72.17865%)" stop-opacity="1"/>
<stop offset="0.296875" stop-color="rgb(10.56366%, 51.803589%, 72.363281%)" stop-opacity="1"/>
<stop offset="0.304688" stop-color="rgb(10.578918%, 52.001953%, 72.547913%)" stop-opacity="1"/>
<stop offset="0.3125" stop-color="rgb(10.594177%, 52.200317%, 72.732544%)" stop-opacity="1"/>
<stop offset="0.320313" stop-color="rgb(10.610962%, 52.398682%, 72.917175%)" stop-opacity="1"/>
<stop offset="0.328125" stop-color="rgb(10.626221%, 52.597046%, 73.101807%)" stop-opacity="1"/>
<stop offset="0.335938" stop-color="rgb(10.641479%, 52.79541%, 73.286438%)" stop-opacity="1"/>
<stop offset="0.34375" stop-color="rgb(10.656738%, 52.993774%, 73.471069%)" stop-opacity="1"/>
<stop offset="0.351562" stop-color="rgb(10.673523%, 53.192139%, 73.654175%)" stop-opacity="1"/>
<stop offset="0.359375" stop-color="rgb(10.688782%, 53.390503%, 73.838806%)" stop-opacity="1"/>
<stop offset="0.367187" stop-color="rgb(10.704041%, 53.587341%, 74.023438%)" stop-opacity="1"/>
<stop offset="0.375" stop-color="rgb(10.720825%, 53.785706%, 74.208069%)" stop-opacity="1"/>
<stop offset="0.382812" stop-color="rgb(10.736084%, 53.98407%, 74.3927%)" stop-opacity="1"/>
<stop offset="0.390625" stop-color="rgb(10.751343%, 54.182434%, 74.577332%)" stop-opacity="1"/>
<stop offset="0.398438" stop-color="rgb(10.768127%, 54.380798%, 74.761963%)" stop-opacity="1"/>
<stop offset="0.40625" stop-color="rgb(10.783386%, 54.579163%, 74.946594%)" stop-opacity="1"/>
<stop offset="0.414062" stop-color="rgb(10.798645%, 54.777527%, 75.131226%)" stop-opacity="1"/>
<stop offset="0.421875" stop-color="rgb(10.813904%, 54.975891%, 75.315857%)" stop-opacity="1"/>
<stop offset="0.429688" stop-color="rgb(10.830688%, 55.174255%, 75.500488%)" stop-opacity="1"/>
<stop offset="0.4375" stop-color="rgb(10.845947%, 55.37262%, 75.68512%)" stop-opacity="1"/>
<stop offset="0.445312" stop-color="rgb(10.861206%, 55.570984%, 75.869751%)" stop-opacity="1"/>
<stop offset="0.453125" stop-color="rgb(10.877991%, 55.769348%, 76.054382%)" stop-opacity="1"/>
<stop offset="0.460937" stop-color="rgb(10.89325%, 55.967712%, 76.239014%)" stop-opacity="1"/>
<stop offset="0.46875" stop-color="rgb(10.908508%, 56.166077%, 76.423645%)" stop-opacity="1"/>
<stop offset="0.476562" stop-color="rgb(10.923767%, 56.364441%, 76.608276%)" stop-opacity="1"/>
<stop offset="0.484375" stop-color="rgb(10.940552%, 56.562805%, 76.791382%)" stop-opacity="1"/>
<stop offset="0.492188" stop-color="rgb(10.955811%, 56.761169%, 76.976013%)" stop-opacity="1"/>
<stop offset="0.5" stop-color="rgb(10.971069%, 56.959534%, 77.160645%)" stop-opacity="1"/>
<stop offset="0.507812" stop-color="rgb(10.987854%, 57.157898%, 77.345276%)" stop-opacity="1"/>
<stop offset="0.515625" stop-color="rgb(11.003113%, 57.354736%, 77.529907%)" stop-opacity="1"/>
<stop offset="0.523437" stop-color="rgb(11.018372%, 57.553101%, 77.714539%)" stop-opacity="1"/>
<stop offset="0.53125" stop-color="rgb(11.03363%, 57.751465%, 77.89917%)" stop-opacity="1"/>
<stop offset="0.539062" stop-color="rgb(11.050415%, 57.949829%, 78.083801%)" stop-opacity="1"/>
<stop offset="0.546875" stop-color="rgb(11.065674%, 58.148193%, 78.268433%)" stop-opacity="1"/>
<stop offset="0.554687" stop-color="rgb(11.080933%, 58.346558%, 78.453064%)" stop-opacity="1"/>
<stop offset="0.5625" stop-color="rgb(11.097717%, 58.544922%, 78.637695%)" stop-opacity="1"/>
<stop offset="0.570312" stop-color="rgb(11.112976%, 58.743286%, 78.822327%)" stop-opacity="1"/>
<stop offset="0.578125" stop-color="rgb(11.128235%, 58.94165%, 79.006958%)" stop-opacity="1"/>
<stop offset="0.585938" stop-color="rgb(11.14502%, 59.140015%, 79.191589%)" stop-opacity="1"/>
<stop offset="0.59375" stop-color="rgb(11.160278%, 59.338379%, 79.376221%)" stop-opacity="1"/>
<stop offset="0.601562" stop-color="rgb(11.175537%, 59.536743%, 79.560852%)" stop-opacity="1"/>
<stop offset="0.609375" stop-color="rgb(11.190796%, 59.735107%, 79.743958%)" stop-opacity="1"/>
<stop offset="0.617188" stop-color="rgb(11.207581%, 59.933472%, 79.928589%)" stop-opacity="1"/>
<stop offset="0.625" stop-color="rgb(11.222839%, 60.131836%, 80.11322%)" stop-opacity="1"/>
<stop offset="0.632813" stop-color="rgb(11.238098%, 60.3302%, 80.297852%)" stop-opacity="1"/>
<stop offset="0.640625" stop-color="rgb(11.254883%, 60.528564%, 80.482483%)" stop-opacity="1"/>
<stop offset="0.648438" stop-color="rgb(11.270142%, 60.726929%, 80.667114%)" stop-opacity="1"/>
<stop offset="0.65625" stop-color="rgb(11.2854%, 60.923767%, 80.851746%)" stop-opacity="1"/>
<stop offset="0.664063" stop-color="rgb(11.300659%, 61.122131%, 81.036377%)" stop-opacity="1"/>
<stop offset="0.671875" stop-color="rgb(11.317444%, 61.320496%, 81.221008%)" stop-opacity="1"/>
<stop offset="0.679688" stop-color="rgb(11.332703%, 61.51886%, 81.40564%)" stop-opacity="1"/>
<stop offset="0.6875" stop-color="rgb(11.347961%, 61.717224%, 81.590271%)" stop-opacity="1"/>
<stop offset="0.695312" stop-color="rgb(11.364746%, 61.915588%, 81.774902%)" stop-opacity="1"/>
<stop offset="0.703125" stop-color="rgb(11.380005%, 62.113953%, 81.959534%)" stop-opacity="1"/>
<stop offset="0.710937" stop-color="rgb(11.395264%, 62.312317%, 82.144165%)" stop-opacity="1"/>
<stop offset="0.71875" stop-color="rgb(11.412048%, 62.510681%, 82.328796%)" stop-opacity="1"/>
<stop offset="0.726562" stop-color="rgb(11.427307%, 62.709045%, 82.513428%)" stop-opacity="1"/>
<stop offset="0.734375" stop-color="rgb(11.442566%, 62.90741%, 82.698059%)" stop-opacity="1"/>
<stop offset="0.742187" stop-color="rgb(11.457825%, 63.105774%, 82.881165%)" stop-opacity="1"/>
<stop offset="0.75" stop-color="rgb(11.474609%, 63.304138%, 83.065796%)" stop-opacity="1"/>
<stop offset="0.757812" stop-color="rgb(11.489868%, 63.502502%, 83.250427%)" stop-opacity="1"/>
<stop offset="0.765625" stop-color="rgb(11.505127%, 63.700867%, 83.435059%)" stop-opacity="1"/>
<stop offset="0.773438" stop-color="rgb(11.521912%, 63.899231%, 83.61969%)" stop-opacity="1"/>
<stop offset="0.78125" stop-color="rgb(11.53717%, 64.097595%, 83.804321%)" stop-opacity="1"/>
<stop offset="0.789062" stop-color="rgb(11.552429%, 64.295959%, 83.988953%)" stop-opacity="1"/>
<stop offset="0.796875" stop-color="rgb(11.567688%, 64.492798%, 84.173584%)" stop-opacity="1"/>
<stop offset="0.804688" stop-color="rgb(11.584473%, 64.691162%, 84.358215%)" stop-opacity="1"/>
<stop offset="0.8125" stop-color="rgb(11.599731%, 64.889526%, 84.542847%)" stop-opacity="1"/>
<stop offset="0.820312" stop-color="rgb(11.61499%, 65.087891%, 84.727478%)" stop-opacity="1"/>
<stop offset="0.828125" stop-color="rgb(11.631775%, 65.286255%, 84.912109%)" stop-opacity="1"/>
<stop offset="0.835938" stop-color="rgb(11.647034%, 65.484619%, 85.096741%)" stop-opacity="1"/>
<stop offset="0.84375" stop-color="rgb(11.662292%, 65.682983%, 85.281372%)" stop-opacity="1"/>
<stop offset="0.851563" stop-color="rgb(11.677551%, 65.881348%, 85.466003%)" stop-opacity="1"/>
<stop offset="0.859375" stop-color="rgb(11.694336%, 66.079712%, 85.650635%)" stop-opacity="1"/>
<stop offset="0.867187" stop-color="rgb(11.709595%, 66.278076%, 85.83374%)" stop-opacity="1"/>
<stop offset="0.875" stop-color="rgb(11.724854%, 66.47644%, 86.018372%)" stop-opacity="1"/>
<stop offset="0.882812" stop-color="rgb(11.741638%, 66.674805%, 86.203003%)" stop-opacity="1"/>
<stop offset="0.890625" stop-color="rgb(11.756897%, 66.873169%, 86.387634%)" stop-opacity="1"/>
<stop offset="0.898437" stop-color="rgb(11.772156%, 67.071533%, 86.572266%)" stop-opacity="1"/>
<stop offset="0.90625" stop-color="rgb(11.78894%, 67.269897%, 86.756897%)" stop-opacity="1"/>
<stop offset="0.914062" stop-color="rgb(11.804199%, 67.468262%, 86.941528%)" stop-opacity="1"/>
<stop offset="0.921875" stop-color="rgb(11.819458%, 67.666626%, 87.12616%)" stop-opacity="1"/>
<stop offset="0.929687" stop-color="rgb(11.834717%, 67.86499%, 87.310791%)" stop-opacity="1"/>
<stop offset="0.9375" stop-color="rgb(11.851501%, 68.061829%, 87.495422%)" stop-opacity="1"/>
<stop offset="0.945312" stop-color="rgb(11.86676%, 68.260193%, 87.680054%)" stop-opacity="1"/>
<stop offset="0.953125" stop-color="rgb(11.882019%, 68.458557%, 87.864685%)" stop-opacity="1"/>
<stop offset="0.960937" stop-color="rgb(11.898804%, 68.656921%, 88.049316%)" stop-opacity="1"/>
<stop offset="0.96875" stop-color="rgb(11.914062%, 68.855286%, 88.233948%)" stop-opacity="1"/>
<stop offset="0.976562" stop-color="rgb(11.929321%, 69.05365%, 88.418579%)" stop-opacity="1"/>
<stop offset="0.984375" stop-color="rgb(11.94458%, 69.252014%, 88.60321%)" stop-opacity="1"/>
<stop offset="0.992188" stop-color="rgb(11.961365%, 69.450378%, 88.786316%)" stop-opacity="1"/>
<stop offset="1" stop-color="rgb(11.976624%, 69.648743%, 88.970947%)" stop-opacity="1"/>
</linearGradient>
</defs>
<g clip-path="url(#clip-0)">
<path fill-rule="evenodd" fill="rgb(0%, 0%, 0.784302%)" fill-opacity="1" d="M 340.648438 2105.058594 L 340.648438 998.828125 C 340.648438 448.070312 788.734375 0 1339.488281 0 C 1890.25 0 2338.308594 448.070312 2338.308594 998.828125 L 2338.308594 2105.121094 C 2540.609375 2211.730469 2678.839844 2424.160156 2678.839844 2668.300781 L 2678.839844 3260.53125 C 2678.839844 3284.820312 2659.140625 3304.519531 2634.851562 3304.519531 L 1642.101562 3304.519531 L 1640.390625 3304.550781 L 1638.839844 3304.519531 L 1040.039062 3304.519531 L 1038.488281 3304.550781 L 1036.769531 3304.519531 L 43.980469 3304.519531 C 19.6875 3304.519531 0 3284.820312 0 3260.53125 L 0 2668.300781 C 0 2424.128906 138.300781 2211.671875 340.648438 2105.058594 Z M 1560.648438 726.359375 C 1537.21875 726.359375 1510.640625 719.839844 1474.371094 706.011719 C 1444.871094 694.761719 1417.03125 683.628906 1390.320312 672.941406 C 1204.699219 598.800781 1092.660156 554.070312 877.550781 636.929688 C 854.898438 645.660156 829.433594 634.371094 820.714844 611.71875 C 811.96875 589.050781 823.273438 563.609375 845.929688 554.890625 C 1093.238281 459.558594 1231.53125 514.808594 1422.960938 591.308594 C 1449.261719 601.808594 1476.679688 612.769531 1505.730469 623.851562 C 1563.640625 645.921875 1563.621094 645.921875 1628.539062 605.269531 C 1648.898438 592.550781 1669.359375 578.519531 1690.078125 564.300781 C 1709.308594 551.140625 1728.800781 537.800781 1748.550781 525.109375 C 1768.980469 511.988281 1796.171875 517.988281 1809.28125 538.410156 C 1822.378906 558.851562 1816.421875 586.058594 1795.960938 599.160156 C 1776.941406 611.339844 1758.269531 624.171875 1739.800781 636.839844 C 1718.03125 651.761719 1696.570312 666.429688 1675.21875 679.808594 C 1627.519531 709.679688 1598.148438 726.359375 1560.648438 726.359375 Z M 1051.429688 1851.628906 L 1085.109375 2058.308594 L 1339.441406 2396.769531 L 1593.769531 2058.308594 L 1627.441406 1851.628906 C 1574.25 1869.941406 1517.488281 1879.890625 1458.53125 1879.890625 L 1220.351562 1879.890625 C 1161.410156 1879.890625 1104.628906 1869.941406 1051.429688 1851.628906 Z M 1011.480469 1738.160156 C 865.339844 1657.910156 765.242188 1496.230469 765.242188 1310.351562 L 765.9375 1138.839844 C 766.371094 843.390625 977.148438 799.261719 1102.738281 799.261719 C 1126.640625 799.261719 1141.890625 801.121094 1141.929688 801.128906 C 1143.820312 801.371094 1145.691406 801.5 1147.589844 801.5 C 1193.519531 801.5 1249.96875 827.359375 1309.71875 854.738281 C 1391.96875 892.441406 1486.261719 935.429688 1588.25 928.101562 C 1681.46875 921.300781 1774.109375 858.128906 1855.839844 802.390625 C 1876.039062 788.660156 1895.710938 775.230469 1913.679688 763.96875 L 1913.679688 1310.179688 C 1913.679688 1496.261719 1813.480469 1658.03125 1667.261719 1738.238281 C 1664.46875 1739.398438 1661.800781 1740.808594 1659.300781 1742.46875 C 1598.710938 1774.148438 1530.570312 1791.980469 1458.53125 1791.980469 L 1220.339844 1791.980469 C 1148.359375 1791.980469 1080.269531 1774.171875 1019.699219 1742.550781 C 1017.140625 1740.808594 1014.378906 1739.339844 1011.480469 1738.160156 Z M 991.738281 2032.101562 L 955.085938 1807.109375 C 789.457031 1709.429688 677.304688 1523.269531 677.304688 1310.140625 L 677.988281 1138.589844 C 678.617188 742.101562 1003.238281 711.308594 1102.75 711.308594 C 1126.679688 711.308594 1143.589844 712.839844 1150.261719 713.550781 C 1214.5 714.339844 1278.578125 743.71875 1346.390625 774.789062 C 1422.828125 809.808594 1501.601562 846.199219 1581.871094 840.359375 C 1651.46875 835.289062 1733.738281 779.191406 1806.308594 729.71875 C 1859.550781 693.429688 1905.511719 662.070312 1945.851562 650.839844 C 1959.171875 647.210938 1973.300781 649.921875 1984.230469 658.179688 C 1995.179688 666.519531 2001.589844 679.46875 2001.589844 693.21875 L 2001.589844 1310.121094 C 2001.589844 1523.269531 1889.441406 1709.429688 1723.828125 1807.109375 L 1687.171875 2032.101562 L 2041.171875 2032.101562 C 2042.328125 2032.039062 2043.511719 2032.039062 2044.691406 2032.121094 C 2116.660156 2032.359375 2185.808594 2044.601562 2250.320312 2066.949219 L 2250.320312 998.828125 C 2250.320312 496.570312 1841.710938 87.960938 1339.46875 87.960938 C 837.195312 87.960938 428.597656 496.570312 428.597656 998.828125 L 428.597656 2066.898438 C 493.695312 2044.359375 563.535156 2032.101562 636.199219 2032.101562 Z M 1339.441406 2513.960938 C 1353.261719 2513.960938 1366.261719 2507.449219 1374.609375 2496.390625 L 1657.410156 2120.058594 L 1981.261719 2120.058594 L 1608.871094 3216.558594 L 1069.980469 3216.558594 L 697.605469 2120.058594 L 1021.511719 2120.058594 L 1304.28125 2496.390625 C 1312.570312 2507.46875 1325.609375 2513.960938 1339.441406 2513.960938 Z M 486.394531 3216.558594 L 486.394531 2900.511719 C 486.394531 2876.210938 506.082031 2856.511719 530.375 2856.511719 C 554.660156 2856.511719 574.34375 2876.210938 574.34375 2900.511719 L 574.34375 3216.558594 L 977.097656 3216.558594 L 605.023438 2120.949219 C 534.90625 2124.921875 468.273438 2142.101562 407.585938 2170.039062 C 404.800781 2171.75 401.808594 2173.171875 398.65625 2174.21875 C 214.980469 2262.890625 87.960938 2451.058594 87.960938 2668.300781 L 87.960938 3216.558594 Z M 2279.980469 2174.140625 C 2277.058594 2173.121094 2274.25 2171.800781 2271.621094 2170.230469 C 2210.851562 2142.148438 2144.078125 2124.921875 2073.851562 2120.949219 L 1701.769531 3216.558594 L 2104.519531 3216.558594 L 2104.519531 2900.511719 C 2104.519531 2876.210938 2124.199219 2856.511719 2148.488281 2856.511719 C 2172.789062 2856.511719 2192.460938 2876.210938 2192.460938 2900.511719 L 2192.460938 3216.558594 L 2590.878906 3216.558594 L 2590.878906 2668.300781 C 2590.878906 2450.949219 2463.78125 2262.761719 2279.980469 2174.140625 "/>
</g>
<path fill-rule="evenodd" fill="rgb(98.4375%, 73.631287%, 50.976562%)" fill-opacity="1" d="M 1667.261719 1738.238281 C 1813.480469 1658.03125 1913.679688 1496.261719 1913.679688 1310.179688 L 1913.679688 763.96875 C 1895.710938 775.230469 1876.039062 788.660156 1855.839844 802.390625 C 1774.109375 858.128906 1681.46875 921.300781 1588.25 928.101562 C 1486.261719 935.429688 1391.96875 892.441406 1309.71875 854.738281 C 1249.96875 827.359375 1193.519531 801.5 1147.589844 801.5 L 1141.929688 801.128906 C 1141.890625 801.121094 1126.640625 799.261719 1102.738281 799.261719 C 977.148438 799.261719 766.371094 843.390625 765.9375 1138.839844 L 765.242188 1310.351562 C 765.242188 1496.230469 865.339844 1657.910156 1011.480469 1738.160156 C 1014.378906 1739.339844 1017.140625 1740.808594 1019.699219 1742.550781 C 1080.269531 1774.171875 1148.359375 1791.980469 1220.339844 1791.980469 L 1458.53125 1791.980469 C 1530.570312 1791.980469 1598.710938 1774.148438 1659.300781 1742.46875 C 1661.800781 1740.808594 1664.46875 1739.398438 1667.261719 1738.238281 "/>
<path fill-rule="evenodd" fill="rgb(75.389099%, 37.646484%, 0%)" fill-opacity="1" d="M 1150.261719 713.550781 C 1214.5 714.339844 1278.578125 743.71875 1346.390625 774.789062 C 1422.828125 809.808594 1501.601562 846.199219 1581.871094 840.359375 C 1651.46875 835.289062 1733.738281 779.191406 1806.308594 729.71875 C 1859.550781 693.429688 1905.511719 662.070312 1945.851562 650.839844 C 1959.171875 647.210938 1973.300781 649.921875 1984.230469 658.179688 C 1995.179688 666.519531 2001.589844 679.46875 2001.589844 693.21875 L 2001.589844 1310.121094 C 2001.589844 1523.269531 1889.441406 1709.429688 1723.828125 1807.109375 L 1687.171875 2032.101562 L 2041.171875 2032.101562 C 2042.328125 2032.039062 2043.511719 2032.039062 2044.691406 2032.121094 C 2116.660156 2032.359375 2185.808594 2044.601562 2250.320312 2066.949219 L 2250.320312 998.828125 C 2250.320312 496.570312 1841.710938 87.960938 1339.46875 87.960938 C 837.195312 87.960938 428.597656 496.570312 428.597656 998.828125 L 428.597656 2066.898438 C 493.695312 2044.359375 563.535156 2032.101562 636.199219 2032.101562 L 991.738281 2032.101562 L 955.085938 1807.109375 C 789.457031 1709.429688 677.304688 1523.269531 677.304688 1310.140625 L 677.988281 1138.589844 C 678.617188 742.101562 1003.238281 711.308594 1102.75 711.308594 C 1126.679688 711.308594 1143.589844 712.839844 1150.261719 713.550781 Z M 845.929688 554.890625 C 1093.238281 459.558594 1231.53125 514.808594 1422.960938 591.308594 C 1449.261719 601.808594 1476.679688 612.769531 1505.730469 623.851562 C 1563.640625 645.921875 1563.621094 645.921875 1628.539062 605.269531 C 1648.898438 592.550781 1669.359375 578.519531 1690.078125 564.300781 C 1709.308594 551.140625 1728.800781 537.800781 1748.550781 525.109375 C 1768.980469 511.988281 1796.171875 517.988281 1809.28125 538.410156 C 1822.378906 558.851562 1816.421875 586.058594 1795.960938 599.160156 C 1776.941406 611.339844 1758.269531 624.171875 1739.800781 636.839844 C 1718.03125 651.761719 1696.570312 666.429688 1675.21875 679.808594 C 1627.519531 709.679688 1598.148438 726.359375 1560.648438 726.359375 C 1537.21875 726.359375 1510.640625 719.839844 1474.371094 706.011719 C 1444.871094 694.761719 1417.03125 683.628906 1390.320312 672.941406 C 1204.699219 598.800781 1092.660156 554.070312 877.550781 636.929688 C 854.898438 645.660156 829.433594 634.371094 820.714844 611.71875 C 811.96875 589.050781 823.273438 563.609375 845.929688 554.890625 "/>
<path fill="none" stroke-width="58.0947" stroke-linecap="butt" stroke-linejoin="miter" stroke="rgb(75.389099%, 37.646484%, 0%)" stroke-opacity="1" stroke-miterlimit="2.6131" d="M 11502.617188 25909.992188 C 12145 25902.101562 12785.78125 25608.3125 13463.90625 25297.609375 C 14228.28125 24947.414062 15016.015625 24583.507812 15818.710938 24641.90625 C 16514.6875 24692.609375 17337.382812 25253.585938 18063.085938 25748.3125 C 18595.507812 26111.203125 19055.117188 26424.796875 19458.515625 26537.101562 C 19591.71875 26573.390625 19733.007812 26546.28125 19842.304688 26463.703125 C 19951.796875 26380.304688 20015.898438 26250.8125 20015.898438 26113.3125 L 20015.898438 19944.289062 C 20015.898438 17812.804688 18894.414062 15951.203125 17238.28125 14974.40625 L 16871.71875 12724.484375 L 20411.71875 12724.484375 C 20423.28125 12725.109375 20435.117188 12725.109375 20446.914062 12724.289062 C 21166.601562 12721.90625 21858.085938 12599.484375 22503.203125 12376.007812 L 22503.203125 23057.21875 C 22503.203125 28079.796875 18417.109375 32165.890625 13394.6875 32165.890625 C 8371.953125 32165.890625 4285.976562 28079.796875 4285.976562 23057.21875 L 4285.976562 12376.515625 C 4936.953125 12601.90625 5635.351562 12724.484375 6361.992188 12724.484375 L 9917.382812 12724.484375 L 9550.859375 14974.40625 C 7894.570312 15951.203125 6773.046875 17812.804688 6773.046875 19944.09375 L 6779.882812 21659.601562 C 6786.171875 25624.484375 10032.382812 25932.414062 11027.5 25932.414062 C 11266.796875 25932.414062 11435.898438 25917.101562 11502.617188 25909.992188 Z M 8459.296875 27496.59375 C 10932.382812 28449.914062 12315.3125 27897.414062 14229.609375 27132.414062 C 14492.617188 27027.414062 14766.796875 26917.804688 15057.304688 26806.984375 C 15636.40625 26586.28125 15636.210938 26586.28125 16285.390625 26992.804688 C 16488.984375 27119.992188 16693.59375 27260.304688 16900.78125 27402.492188 C 17093.085938 27534.09375 17288.007812 27667.492188 17485.507812 27794.40625 C 17689.804688 27925.617188 17961.71875 27865.617188 18092.8125 27661.398438 C 18223.789062 27456.984375 18164.21875 27184.914062 17959.609375 27053.898438 C 17769.414062 26932.101562 17582.695312 26803.78125 17398.007812 26677.101562 C 17180.3125 26527.882812 16965.703125 26381.203125 16752.1875 26247.414062 C 16275.195312 25948.703125 15981.484375 25781.90625 15606.484375 25781.90625 C 15372.1875 25781.90625 15106.40625 25847.101562 14743.710938 25985.382812 C 14448.710938 26097.882812 14170.3125 26209.210938 13903.203125 26316.085938 C 12046.992188 27057.492188 10926.601562 27504.796875 8775.507812 26676.203125 C 8548.984375 26588.898438 8294.335938 26701.789062 8207.148438 26928.3125 C 8119.6875 27154.992188 8232.734375 27409.40625 8459.296875 27496.59375 Z M 8459.296875 27496.59375 " transform="matrix(0.1, 0, 0, -0.1, 0, 3304.55)"/>
<g clip-path="url(#clip-1)">
<g clip-path="url(#clip-2)">
<path fill-rule="nonzero" fill="url(#linear-pattern-0)" d="M 1981.261719 2120.058594 L 697.605469 2120.058594 L 697.605469 3216.558594 L 1981.261719 3216.558594 Z M 1981.261719 2120.058594 "/>
</g>
</g>
<path fill-rule="evenodd" fill="rgb(90.234375%, 90.234375%, 90.234375%)" fill-opacity="1" d="M 977.097656 3216.558594 L 605.023438 2120.949219 C 534.90625 2124.921875 468.273438 2142.101562 407.585938 2170.039062 C 404.800781 2171.75 401.808594 2173.171875 398.65625 2174.21875 C 214.980469 2262.890625 87.960938 2451.058594 87.960938 2668.300781 L 87.960938 3216.558594 L 486.394531 3216.558594 L 486.394531 2900.511719 C 486.394531 2876.210938 506.082031 2856.511719 530.375 2856.511719 C 554.660156 2856.511719 574.34375 2876.210938 574.34375 2900.511719 L 574.34375 3216.558594 L 977.097656 3216.558594 "/>
<path fill-rule="evenodd" fill="rgb(100%, 61.131287%, 34.521484%)" fill-opacity="1" d="M 1085.109375 2058.308594 L 1339.441406 2396.769531 L 1593.769531 2058.308594 L 1627.441406 1851.628906 C 1574.25 1869.941406 1517.488281 1879.890625 1458.53125 1879.890625 L 1220.351562 1879.890625 C 1161.410156 1879.890625 1104.628906 1869.941406 1051.429688 1851.628906 L 1085.109375 2058.308594 "/>
<path fill-rule="evenodd" fill="rgb(90.234375%, 90.234375%, 90.234375%)" fill-opacity="1" d="M 2073.851562 2120.949219 L 1701.769531 3216.558594 L 2104.519531 3216.558594 L 2104.519531 2900.511719 C 2104.519531 2876.210938 2124.199219 2856.511719 2148.488281 2856.511719 C 2172.789062 2856.511719 2192.460938 2876.210938 2192.460938 2900.511719 L 2192.460938 3216.558594 L 2590.878906 3216.558594 L 2590.878906 2668.300781 C 2590.878906 2450.949219 2463.78125 2262.761719 2279.980469 2174.140625 C 2277.058594 2173.121094 2274.25 2171.800781 2271.621094 2170.230469 C 2210.851562 2142.148438 2144.078125 2124.921875 2073.851562 2120.949219 "/>
</svg>
